<?xml version="1.0" encoding="utf-8"?>
<!-- Generator: Adobe Illustrator 24.1.2, SVG Export Plug-In . SVG Version: 6.00 Build 0)  -->
<svg version="1.1" id="Layer_1" xmlns="http://www.w3.org/2000/svg" xmlns:xlink="http://www.w3.org/1999/xlink" x="0px" y="0px"
	 viewBox="0 0 3210.42 91.92" style="enable-background:new 0 0 3210.42 91.92;" xml:space="preserve">
<g>
	<polygon points="3210.42,70.71 3189.21,91.92 3139.71,42.42 3111.42,70.71 3090.21,91.92 3069,70.71 3040.71,42.42 3012.42,70.71 
		2991.21,91.92 2970,70.71 2941.71,42.42 2913.42,70.71 2892.21,91.92 2871,70.71 2842.71,42.42 2814.42,70.71 2793.21,91.92 
		2772,70.71 2743.71,42.42 2715.42,70.71 2694.21,91.92 2673,70.71 2644.71,42.42 2616.42,70.71 2595.21,91.92 2574,70.71 
		2545.71,42.42 2517.42,70.71 2496.21,91.92 2475,70.71 2446.71,42.42 2418.42,70.71 2397.21,91.92 2376,70.71 2347.71,42.42 
		2319.42,70.71 2298.21,91.92 2277,70.71 2248.71,42.42 2220.42,70.71 2199.21,91.92 2178,70.71 2149.71,42.42 2121.42,70.71 
		2100.21,91.92 2079,70.71 2050.71,42.42 2022.42,70.71 2001.21,91.92 1980,70.71 1951.71,42.42 1923.42,70.71 1902.21,91.92 
		1881,70.71 1852.71,42.42 1824.42,70.71 1803.21,91.92 1782,70.71 1753.71,42.42 1725.42,70.71 1704.21,91.92 1683,70.71 
		1654.71,42.42 1626.42,70.71 1605.21,91.92 1584,70.71 1555.71,42.42 1527.42,70.71 1506.21,91.92 1485,70.71 1456.71,42.42 
		1428.42,70.71 1407.21,91.92 1386,70.71 1357.71,42.42 1329.42,70.71 1308.21,91.92 1287,70.71 1258.71,42.42 1230.42,70.71 
		1209.21,91.92 1188,70.71 1159.71,42.42 1131.42,70.71 1110.21,91.92 1089,70.71 1060.71,42.42 1032.42,70.71 1011.21,91.92 
		990,70.71 961.71,42.42 933.42,70.71 912.21,91.92 891,70.71 862.71,42.42 834.42,70.71 813.21,91.92 792,70.71 763.71,42.42 
		735.42,70.71 714.21,91.92 693,70.71 664.71,42.42 636.42,70.71 615.21,91.92 594,70.71 565.71,42.42 537.42,70.71 516.21,91.92 
		495,70.71 466.71,42.42 438.42,70.71 417.21,91.92 396,70.71 367.71,42.42 339.42,70.71 318.21,91.92 297,70.71 268.71,42.42 
		240.42,70.71 219.21,91.92 198,70.71 169.71,42.42 141.42,70.71 120.21,91.92 99,70.71 70.71,42.42 21.21,91.92 0,70.71 70.71,0 
		120.21,49.5 169.71,0 219.21,49.5 268.71,0 318.21,49.5 367.71,0 417.21,49.5 466.71,0 516.21,49.5 565.71,0 615.21,49.5 664.71,0 
		714.21,49.5 763.71,0 813.21,49.5 862.71,0 912.21,49.5 961.71,0 1011.21,49.5 1060.71,0 1110.21,49.5 1159.71,0 1209.21,49.5 
		1258.71,0 1308.21,49.5 1357.71,0 1407.21,49.5 1456.71,0 1506.21,49.5 1555.71,0 1605.21,49.5 1654.71,0 1704.21,49.5 1753.71,0 
		1803.21,49.5 1852.71,0 1902.21,49.5 1951.71,0 2001.21,49.5 2050.71,0 2100.21,49.5 2149.71,0 2199.21,49.5 2248.71,0 
		2298.21,49.5 2347.71,0 2397.21,49.5 2446.71,0 2496.21,49.5 2545.71,0 2595.21,49.5 2644.71,0 2694.21,49.5 2743.71,0 
		2793.21,49.5 2842.71,0 2892.21,49.5 2941.71,0 2991.21,49.5 3040.71,0 3090.21,49.5 3139.71,0 	"/>
</g>
</svg>
